<?xml version="1.0" encoding="UTF-8" standalone="no"?>
<!DOCTYPE svg PUBLIC "-//W3C//DTD SVG 1.1//EN" "http://www.w3.org/Graphics/SVG/1.1/DTD/svg11.dtd">
<!-- Created with Vectornator (http://vectornator.io/) -->
<svg height="100%" stroke-miterlimit="10" style="fill-rule:nonzero;clip-rule:evenodd;stroke-linecap:round;stroke-linejoin:round;" version="1.1" viewBox="0 0 265.3 56.5" width="100%" xml:space="preserve" xmlns="http://www.w3.org/2000/svg" xmlns:vectornator="http://vectornator.io" xmlns:xlink="http://www.w3.org/1999/xlink">
<defs/>
<g id="Layer_2_00000107558611146627564560000000607199727908213689_" vectornator:layerName="Layer_2_00000107558611146627564560000000607199727908213689_">
<g opacity="1" vectornator:layerName="Layer_1-2">
<g opacity="1" vectornator:layerName="Page-1">
<path d="M28.7 0L0 56.4L12.6 56.4L17.9 46L41.2 46L46.1 56.5L58.6 56.5L32 0L28.7 0ZM30.1 22.1L36 34.7L23.7 34.7L30.1 22.1Z" fill="#bdbdbd" fill-rule="nonzero" opacity="1" stroke="none" vectornator:layerName="path"/>
<path d="M103.5 0L103.5 31.5L72.3 0L68.8 0L68.8 56.4L80 56.4L80 23.5L111.7 56.4L114.7 56.4L114.7 0L103.5 0Z" fill="#bdbdbd" fill-rule="nonzero" opacity="1" stroke="none" vectornator:layerName="polygon"/>
<path d="M132.3 56.4L143.6 56.4L143.6 0L132.3 0L132.3 56.4Z" fill="#bdbdbd" fill-rule="nonzero" opacity="1" stroke="none" vectornator:layerName="polygon"/>
<path d="M227.7 0L227.7 56.4L265 56.4L265 45.1L239 45.1L239 32.9L260.7 32.9L260.7 21.7L239 21.7L239 11.3L265.3 11.3L265.3 0L227.7 0Z" fill="#bdbdbd" fill-rule="nonzero" opacity="1" stroke="none" vectornator:layerName="polygon"/>
<path d="M162.8 0L182.8 28.2L162.8 56.4L176.6 56.4L189.7 38L196.7 28.2L189.7 18.5L176.6 0L162.8 0Z" fill="#bdbdbd" fill-rule="nonzero" opacity="1" stroke="none" vectornator:layerName="polygon"/>
<path d="M192.7 42.1L202.9 56.4L216.7 56.4L199.6 32.3L192.7 42.1Z" fill="#bdbdbd" fill-rule="nonzero" opacity="1" stroke="none" vectornator:layerName="polygon"/>
<path d="M202.9 0L192.7 14.3L199.6 24.1L216.7 0L202.9 0Z" fill="#bdbdbd" fill-rule="nonzero" opacity="1" stroke="none" vectornator:layerName="polygon"/>
<path d="M167.6 28.4C167.6 32.9 163.9 36.6 159.4 36.6C154.9 36.6 151.2 32.9 151.2 28.4C151.2 23.9 154.9 20.2 159.4 20.2L159.4 20.2C163.9 20.2 167.6 23.9 167.6 28.4" fill="#bdbdbd" fill-rule="nonzero" opacity="1" stroke="none" vectornator:layerName="path"/>
</g>
</g>
</g>
</svg>
