<?xml version="1.0" encoding="UTF-8" standalone="no"?>
<!DOCTYPE svg PUBLIC "-//W3C//DTD SVG 1.1//EN" "http://www.w3.org/Graphics/SVG/1.1/DTD/svg11.dtd">
<!-- Created with Vectornator (http://vectornator.io/) -->
<svg height="100%" stroke-miterlimit="10" style="fill-rule:nonzero;clip-rule:evenodd;stroke-linecap:round;stroke-linejoin:round;" version="1.1" viewBox="0 0 24 24" width="100%" xml:space="preserve" xmlns="http://www.w3.org/2000/svg" xmlns:vectornator="http://vectornator.io" xmlns:xlink="http://www.w3.org/1999/xlink">
<defs/>
<g id="Untitled" vectornator:layerName="Untitled">
<g opacity="1" vectornator:layerName="g">
<path d="M22 16.7399L22 4.66994C22 3.46994 21.02 2.57994 19.83 2.67994L19.77 2.67994C17.67 2.85994 14.48 3.92994 12.7 5.04994L12.53 5.15994C12.24 5.33994 11.76 5.33994 11.47 5.15994L11.22 5.00994C9.44 3.89994 6.26 2.83994 4.16 2.66994C2.97 2.56994 2 3.46994 2 4.65994L2 16.7399C2 17.6999 2.78 18.5999 3.74 18.7199L4.03 18.7599C6.2 19.0499 9.55 20.1499 11.47 21.1999L11.51 21.2199C11.78 21.3699 12.21 21.3699 12.47 21.2199C14.39 20.1599 17.75 19.0499 19.93 18.7599L20.26 18.7199C21.22 18.5999 22 17.6999 22 16.7399Z" fill="none" opacity="1" stroke="#ee609a" stroke-linecap="round" stroke-linejoin="round" stroke-width="1.5" vectornator:layerName="path"/>
<path d="M12 5.48999L12 20.49" fill="none" opacity="1" stroke="#ee609a" stroke-linecap="round" stroke-linejoin="round" stroke-width="1.5" vectornator:layerName="path"/>
<path d="M7.75 8.48999L5.5 8.48999" fill="none" opacity="1" stroke="#ee609a" stroke-linecap="round" stroke-linejoin="round" stroke-width="1.5" vectornator:layerName="path"/>
<path d="M8.5 11.49L5.5 11.49" fill="none" opacity="1" stroke="#ee609a" stroke-linecap="round" stroke-linejoin="round" stroke-width="1.5" vectornator:layerName="path"/>
</g>
</g>
</svg>
