<?xml version="1.0" encoding="UTF-8" standalone="no"?>
<!DOCTYPE svg PUBLIC "-//W3C//DTD SVG 1.1//EN" "http://www.w3.org/Graphics/SVG/1.1/DTD/svg11.dtd">
<!-- Created with Vectornator (http://vectornator.io/) -->
<svg height="100%" stroke-miterlimit="10" style="fill-rule:nonzero;clip-rule:evenodd;stroke-linecap:round;stroke-linejoin:round;" version="1.1" viewBox="0 0 24 24" width="100%" xml:space="preserve" xmlns="http://www.w3.org/2000/svg" xmlns:vectornator="http://vectornator.io" xmlns:xlink="http://www.w3.org/1999/xlink">
<defs/>
<g id="Untitled" vectornator:layerName="Untitled">
<g opacity="1" vectornator:layerName="g">
<path d="M16.0002 22.75L8.00023 22.75C3.38023 22.75 2.52023 20.6 2.30023 18.51L1.55023 10.5C1.44023 9.45001 1.41023 7.90001 2.45023 6.74001C3.35023 5.74001 4.84023 5.26001 7.00023 5.26001L17.0002 5.26001C19.1702 5.26001 20.6602 5.75001 21.5502 6.74001C22.5902 7.90001 22.5602 9.45001 22.4502 10.51L21.7002 18.5C21.4802 20.6 20.6202 22.75 16.0002 22.75ZM7.00023 6.75001C5.31023 6.75001 4.15023 7.08001 3.56023 7.74001C3.07023 8.28001 2.91023 9.11001 3.04023 10.35L3.79023 18.36C3.96023 19.94 4.39023 21.25 8.00023 21.25L16.0002 21.25C19.6002 21.25 20.0402 19.94 20.2102 18.35L20.9602 10.36C21.0902 9.11001 20.9302 8.28001 20.4402 7.74001C19.8502 7.08001 18.6902 6.75001 17.0002 6.75001L7.00023 6.75001Z" fill="#ee609a" fill-rule="nonzero" opacity="1" stroke="none" vectornator:layerName="path"/>
<path d="M16 6.75C15.59 6.75 15.25 6.41 15.25 6L15.25 5.2C15.25 3.42 15.25 2.75 12.8 2.75L11.2 2.75C8.75 2.75 8.75 3.42 8.75 5.2L8.75 6C8.75 6.41 8.41 6.75 8 6.75C7.59 6.75 7.25 6.41 7.25 6L7.25 5.2C7.25 3.44 7.25 1.25 11.2 1.25L12.8 1.25C16.75 1.25 16.75 3.44 16.75 5.2L16.75 6C16.75 6.41 16.41 6.75 16 6.75Z" fill="#ee609a" fill-rule="nonzero" opacity="1" stroke="none" vectornator:layerName="path"/>
<path d="M12 16.75C9.25 16.75 9.25 15.05 9.25 14.03L9.25 13C9.25 11.59 9.59 11.25 11 11.25L13 11.25C14.41 11.25 14.75 11.59 14.75 13L14.75 14C14.75 15.04 14.75 16.75 12 16.75ZM10.75 12.75L10.75 13L10.75 14.03C10.75 15.06 10.75 15.25 12 15.25C13.25 15.25 13.25 15.09 13.25 14.02L13.25 13C13.25 12.92 13.25 12.83 13.25 12.75C13.17 12.75 13.08 12.75 13 12.75L11 12.75C10.92 12.75 10.83 12.75 10.75 12.75Z" fill="#ee609a" fill-rule="nonzero" opacity="1" stroke="none" vectornator:layerName="path"/>
<path d="M13.9995 14.77C13.6295 14.77 13.2995 14.49 13.2595 14.11C13.2095 13.7 13.4995 13.32 13.9095 13.27C16.5495 12.94 19.0795 11.94 21.2095 10.39C21.5395 10.14 22.0095 10.22 22.2595 10.56C22.4995 10.89 22.4295 11.36 22.0895 11.61C19.7495 13.31 16.9895 14.4 14.0895 14.77C14.0595 14.77 14.0295 14.77 13.9995 14.77Z" fill="#ee609a" fill-rule="nonzero" opacity="1" stroke="none" vectornator:layerName="path"/>
<path d="M10.0007 14.7799C9.97072 14.7799 9.94072 14.7799 9.91072 14.7799C7.17072 14.4699 4.50072 13.4699 2.19072 11.8899C1.85072 11.6599 1.76072 11.1899 1.99072 10.8499C2.22072 10.5099 2.69072 10.4199 3.03072 10.6499C5.14072 12.0899 7.57072 12.9999 10.0707 13.2899C10.4807 13.3399 10.7807 13.7099 10.7307 14.1199C10.7007 14.4999 10.3807 14.7799 10.0007 14.7799Z" fill="#ee609a" fill-rule="nonzero" opacity="1" stroke="none" vectornator:layerName="path"/>
</g>
</g>
</svg>
