<?xml version="1.0" encoding="UTF-8" standalone="no"?>
<!DOCTYPE svg PUBLIC "-//W3C//DTD SVG 1.1//EN" "http://www.w3.org/Graphics/SVG/1.1/DTD/svg11.dtd">
<!-- Created with Vectornator (http://vectornator.io/) -->
<svg height="100%" stroke-miterlimit="10" style="fill-rule:nonzero;clip-rule:evenodd;stroke-linecap:round;stroke-linejoin:round;" version="1.1" viewBox="0 0 86 100" width="100%" xml:space="preserve" xmlns="http://www.w3.org/2000/svg" xmlns:vectornator="http://vectornator.io" xmlns:xlink="http://www.w3.org/1999/xlink">
<defs/>
<g id="EY_Styles" vectornator:layerName="EY_Styles">
<g opacity="1" vectornator:layerName="20170526-EY-Digital-Brand">
<path d="M11.0897 61.4006L28.4597 61.4006L28.4597 69.3165L0.671506 69.3165L0.671506 34.9037L20.3752 34.9037L24.9839 42.8183L11.0897 42.8183L11.0897 48.4974L23.6507 48.4974L23.6507 55.7222L11.0897 55.7222L11.0897 61.4006ZM46.9543 34.9037L41.0546 46.1339L35.166 34.9037L23.6501 34.9037L35.7841 55.7222L35.7841 69.3165L46.1723 69.3165L46.1723 55.7222L58.3231 34.9037L46.9543 34.9037ZM4.23818 86.0738L0.671506 86.0738L0.671506 77.6982L4.2745 77.6982C5.94262 77.6982 6.89941 78.4935 6.89941 79.8811C6.89941 80.574 6.51619 81.2254 5.93698 81.5349C6.37593 81.7253 7.18745 82.2346 7.18745 83.3965C7.18745 85.0726 6.08476 86.0738 4.23818 86.0738L4.23818 86.0738ZM5.52621 83.4579C5.52621 82.6707 5.09541 82.2718 4.24319 82.2718L2.24132 82.2718L2.24132 84.6557L4.24319 84.6557C5.05846 84.6557 5.52621 84.2196 5.52621 83.4579L5.52621 83.4579ZM5.26197 80.0201C5.26197 79.414 4.89754 79.1188 4.14676 79.1188L2.24069 79.1188L2.24069 80.9071L4.23066 80.9071C5.08351 80.9071 5.26197 80.4245 5.26197 80.0201L5.26197 80.0201ZM10.5976 86.204C11.2025 86.204 11.6984 85.9956 12.0741 85.5843L12.0741 86.0738L13.5994 86.0738L13.5994 79.9556L12.0741 79.9556L12.0741 83.3351C12.0741 84.3201 11.6877 84.8195 10.9263 84.8195C10.1511 84.8195 9.79044 84.3449 9.79044 83.3251L9.79044 79.9556L8.26446 79.9556L8.26446 83.4132C8.26446 84.4554 8.56815 86.204 10.5976 86.204L10.5976 86.204ZM31.5386 82.6924C31.5386 81.7216 31.9438 81.208 32.7102 81.208C33.4691 81.208 33.8223 81.6825 33.8223 82.7023L33.8223 86.0738L35.347 86.0738L35.347 82.6142C35.347 80.788 34.5649 79.8234 33.0859 79.8234C32.4566 79.8234 31.9125 80.053 31.5386 80.471L31.5386 79.9556L30.0126 79.9556L30.0126 86.0738L31.5386 86.0738L31.5386 82.6924ZM14.9708 86.0738L16.4967 86.0738L16.4967 79.9556L14.9708 79.9556L14.9708 86.0738ZM17.8555 86.0738L19.3815 86.0738L19.3815 77.411L17.8555 78.1672L17.8555 86.0738ZM24.2337 78.1672L25.7572 77.4116L25.7572 86.0738L24.2337 86.0738L24.2337 85.606C23.8248 86.0148 23.3452 86.204 22.8323 86.204C21.337 86.204 20.4435 84.9882 20.4435 82.9523C20.4435 81.0231 21.3709 79.8247 22.8643 79.8247C23.3827 79.8247 23.8618 80.0046 24.2337 80.3861L24.2337 78.1672ZM24.2337 84.2091L24.2337 81.806C24.0553 81.5467 23.7127 81.2092 23.1404 81.2092C22.6194 81.2092 21.9977 81.5051 21.9977 82.917C21.9977 84.4833 22.6301 84.812 23.1605 84.812C23.7265 84.812 24.007 84.5006 24.2337 84.2091L24.2337 84.2091ZM59.9292 82.9523C59.9292 85.0186 59.0582 86.204 57.5373 86.204C56.995 86.204 56.5129 86.0018 56.1353 85.616L56.1353 86.0738L54.6112 86.0738L54.6112 78.3216L56.1353 77.5686L56.1353 80.3923C56.5235 80.0362 57.0294 79.8247 57.5053 79.8247C59.0013 79.8247 59.9292 81.0231 59.9292 82.9523L59.9292 82.9523ZM56.1353 81.8308L56.1353 84.2364C56.3 84.4343 56.68 84.812 57.2524 84.812C58.0056 84.812 58.372 84.1917 58.372 82.917C58.372 81.6577 57.7777 81.2092 57.2211 81.2092C56.7727 81.2092 56.387 81.4449 56.1353 81.8308L56.1353 81.8308ZM40.1654 79.9537L41.6889 79.9537L41.6889 85.5031C41.6889 87.5303 40.7089 88.5315 38.6926 88.5631L38.6626 88.5637L38.1222 87.3764L38.1917 87.3746C40.1635 87.3405 40.1654 86.423 40.1654 85.7531L40.1654 85.6104C39.7728 86.0024 39.3006 86.2015 38.7634 86.2015C37.265 86.2015 36.3702 84.9851 36.3702 82.9498C36.3702 81.0206 37.3 79.8222 38.7953 79.8222C39.3138 79.8222 39.7978 80.0207 40.1654 80.3836L40.1654 79.9537ZM39.0715 81.2061C38.5499 81.2061 37.9287 81.5026 37.9287 82.9139C37.9287 84.4802 38.5568 84.8096 39.0834 84.8096C39.63 84.8096 39.9224 84.5199 40.1654 84.206L40.1654 81.8029C39.9869 81.5442 39.6444 81.2061 39.0715 81.2061L39.0715 81.2061ZM45.8329 80.4158C46.5486 80.0126 47.2969 79.8247 48.1409 79.8247C49.7026 79.8247 50.635 80.6187 50.635 81.9493L50.635 86.0738L49.1103 86.0738L49.1103 85.5725C48.6926 86.0372 48.0602 86.204 47.6256 86.204C46.5686 86.204 45.3351 85.6389 45.3351 84.0435C45.3351 82.5634 46.6619 82.0386 47.7978 82.0386C48.2518 82.0386 48.7571 82.1509 49.1103 82.3283L49.1103 81.9133C49.1103 81.3376 48.7277 81.0343 48.0076 81.0343C47.3695 81.0343 46.9136 81.1869 46.4284 81.4567L45.8329 80.4158ZM47.913 84.9584C48.4734 84.9584 48.9161 84.6346 49.1103 84.3139L49.1103 83.4765C48.7565 83.2619 48.3651 83.175 47.913 83.175C47.2549 83.175 46.8617 83.4994 46.8617 84.0435C46.8617 84.6086 47.2643 84.9584 47.913 84.9584L47.913 84.9584ZM65.7908 85.2438C65.2116 85.8889 64.4252 86.204 63.6111 86.204C61.8341 86.204 60.6863 84.9547 60.6863 83.0199C60.6863 81.1689 61.8503 79.8247 63.454 79.8247C65.0275 79.8247 66.0432 81.079 66.0432 83.0199C66.0432 83.1732 66.035 83.3518 66.0256 83.4784L62.2404 83.4784C62.315 84.7153 63.3062 84.812 63.6111 84.812C64.1728 84.812 64.5529 84.5453 64.8284 84.2966L65.7908 85.2438ZM64.5736 82.3723C64.5379 81.7514 64.2154 81.1063 63.4095 81.1063C62.7658 81.1063 62.2987 81.6242 62.2617 82.3723L64.5736 82.3723ZM80.5115 85.2438C79.9179 85.8889 79.1458 86.204 78.3324 86.204C76.5547 86.204 75.4057 84.9547 75.4057 83.0199C75.4057 81.1689 76.5697 79.8247 78.1746 79.8247C79.7469 79.8247 80.7645 81.079 80.7645 83.0199C80.7645 83.1732 80.7551 83.3518 80.7463 83.4784L76.9605 83.4784C77.035 84.7153 78.0256 84.812 78.3324 84.812C78.8935 84.812 79.2729 84.5453 79.5484 84.2966L80.5115 85.2438ZM79.293 82.3723C79.2585 81.7514 78.9342 81.1063 78.1289 81.1063C77.4871 81.1063 77.02 81.6242 76.9818 82.3723L79.293 82.3723ZM73.3018 81.3717L74.6906 81.3717L74.6906 79.9556L73.3024 79.9556L73.3024 77.6306L71.777 78.3855L71.777 79.9556L70.8278 79.9556L70.8278 81.3717L71.777 81.3717L71.777 84.3282C71.777 85.1935 72.2085 86.204 73.4232 86.204C73.906 86.204 74.35 86.1054 74.7056 85.9218L74.8853 84.4957C74.6042 84.6452 74.2823 84.773 73.9624 84.773C73.5096 84.773 73.3018 84.4938 73.3018 83.9492L73.3018 81.3717ZM70.5241 84.4957C70.2435 84.6452 69.9211 84.773 69.6005 84.773C69.1477 84.773 68.9411 84.4938 68.9411 83.9492L68.9411 81.3717L70.2429 81.3717L70.2429 79.9556L68.9411 79.9556L68.9411 77.6306L67.4157 78.3855L67.4157 79.9556L66.4621 79.9556L66.4621 81.3717L67.4157 81.3717L67.4157 84.3282C67.4157 85.1935 67.8466 86.204 69.0626 86.204C69.546 86.204 69.9893 86.1054 70.3444 85.9218L70.5241 84.4957ZM85.7857 80.1938C85.4933 79.9686 85.0425 79.8247 84.6355 79.8247C84.0957 79.8247 83.6373 80.0263 83.271 80.4859L83.271 79.9556L81.7457 79.9556L81.7457 86.0738L83.271 86.0738L83.271 82.7582C83.271 81.788 83.6217 81.3358 84.3731 81.3358C84.7325 81.3358 85.0769 81.4611 85.3837 81.6676L85.7857 80.1938ZM14.9708 79.0803L16.4949 79.0803L16.4949 77.5711L14.9708 77.5711L14.9708 79.0803ZM27.1185 86.0738L28.6438 86.0738L28.6438 79.9556L27.1185 79.9556L27.1185 86.0738ZM27.1179 79.0803L28.6413 79.0803L28.6413 77.5711L27.1179 77.5711L27.1179 79.0803ZM70.5454 88.854L72.0688 88.0985L72.0688 96.7606L70.5454 96.7606L70.5454 96.2941C70.1358 96.7017 69.6562 96.8909 69.1434 96.8909C67.6474 96.8909 66.7539 95.6757 66.7539 93.6398C66.7539 91.7106 67.6819 90.5115 69.1747 90.5115C69.6938 90.5115 70.1734 90.6914 70.5454 91.0741L70.5454 88.854ZM70.5454 94.8959L70.5454 92.4928C70.3669 92.2341 70.0244 91.8967 69.4521 91.8967C68.9298 91.8967 68.3087 92.192 68.3087 93.6044C68.3087 95.1701 68.9405 95.4989 69.4715 95.4989C70.0382 95.4989 70.3187 95.1881 70.5454 94.8959L70.5454 94.8959ZM19.1254 90.8819C18.833 90.6561 18.3815 90.5121 17.9745 90.5121C17.4347 90.5121 16.977 90.7137 16.6107 91.1734L16.6107 90.643L15.0853 90.643L15.0853 96.7612L16.6107 96.7612L16.6107 93.4462C16.6107 92.4754 16.9607 92.0226 17.7128 92.0226C18.0734 92.0226 18.4166 92.1492 18.7234 92.3557L19.1254 90.8819ZM6.16115 92.8935C6.03091 93.4704 5.90442 94.0411 5.83366 94.4338C5.74224 93.9605 5.57631 93.2974 5.46673 92.8942L4.82302 90.6418L3.52497 90.6418L2.88127 92.8948C2.76793 93.3141 2.60074 93.9729 2.51496 94.427C2.43856 93.9673 2.29141 93.285 2.205 92.9277L1.63769 90.6418L0.0653723 90.6418L1.79987 96.7277L1.80926 96.76L3.1286 96.76L3.80612 94.27C3.91883 93.8929 4.09103 93.1379 4.14926 92.8898C4.23192 93.2366 4.3703 93.7732 4.48489 94.2204L5.17117 96.76L6.48175 96.76L8.22626 90.6418L6.71844 90.6418L6.16115 92.8935ZM14.1448 93.7C14.1448 95.5516 12.9639 96.8958 11.3377 96.8958C9.71154 96.8958 8.53121 95.5516 8.53121 93.7C8.53121 91.8483 9.71154 90.5041 11.3377 90.5041C12.9639 90.5041 14.1448 91.8483 14.1448 93.7L14.1448 93.7ZM12.5888 93.7C12.5888 92.6249 12.0979 91.9314 11.3377 91.9314C10.5775 91.9314 10.086 92.6249 10.086 93.7C10.086 94.7743 10.5775 95.4691 11.3377 95.4691C12.0979 95.4691 12.5888 94.7743 12.5888 93.7L12.5888 93.7ZM63.4358 90.8819C63.1434 90.6561 62.6925 90.5121 62.2855 90.5121C61.7458 90.5121 61.288 90.7137 60.9217 91.1734L60.9217 90.643L59.3957 90.643L59.3957 96.7612L60.9217 96.7612L60.9217 93.4462C60.9217 92.4754 61.2718 92.0226 62.0232 92.0226C62.3832 92.0226 62.727 92.1492 63.0338 92.3557L63.4358 90.8819ZM50.4722 92.8935C50.3419 93.4704 50.2154 94.0411 50.1447 94.4338C50.0526 93.9605 49.8873 93.2974 49.7784 92.8942L49.134 90.6418L47.836 90.6418L47.1923 92.8948C47.0783 93.3141 46.9118 93.9729 46.826 94.427C46.749 93.9673 46.6024 93.285 46.516 92.9277L45.9487 90.6418L44.3764 90.6418L46.1109 96.7277L46.1209 96.76L47.4396 96.76L48.1171 94.27C48.2292 93.8929 48.4014 93.1379 48.4597 92.8898C48.5429 93.2366 48.6807 93.7732 48.7965 94.2204L49.4822 96.76L50.7934 96.76L52.5373 90.6418L51.0288 90.6418L50.4722 92.8935ZM58.444 93.7031C58.444 95.5547 57.263 96.8983 55.6362 96.8983C54.0107 96.8983 52.8297 95.5547 52.8297 93.7031C52.8297 91.8514 54.0107 90.5072 55.6362 90.5072C57.263 90.5072 58.444 91.8514 58.444 93.7031L58.444 93.7031ZM56.8879 93.7031C56.8879 92.628 56.3964 91.9345 55.6362 91.9345C54.876 91.9345 54.3857 92.628 54.3857 93.7031C54.3857 94.7774 54.876 95.4716 55.6362 95.4716C56.3964 95.4716 56.8879 94.7774 56.8879 93.7031L56.8879 93.7031ZM24.9144 90.6418L23.1511 90.6418L21.9338 92.2112C21.771 92.4184 21.5456 92.7087 21.3558 92.9785L21.3558 88.1065L19.8374 88.8621L19.8374 96.76L21.3558 96.76L21.3558 94.9269L22.1623 93.9202L23.461 96.76L25.1473 96.76L23.2669 92.6572L24.9144 90.6418ZM30.5105 93.3799C30.5105 92.4091 30.9156 91.8961 31.682 91.8961C32.4409 91.8961 32.7941 92.37 32.7941 93.3904L32.7941 96.7612L34.3195 96.7612L34.3195 93.3023C34.3195 91.4761 33.5374 90.5109 32.0577 90.5109C31.429 90.5109 30.8849 90.7404 30.5105 91.1591L30.5105 90.643L28.9845 90.643L28.9845 96.7612L30.5105 96.7612L30.5105 93.3799ZM39.1372 90.6412L40.6613 90.6412L40.6613 96.1905C40.6613 98.2184 39.6807 99.2189 37.6645 99.2506L37.635 99.2512L37.0946 98.0645L37.1635 98.0627C39.136 98.0279 39.1372 97.1105 39.1372 96.4411L39.1372 96.2985C38.7446 96.6911 38.2725 96.8884 37.7358 96.8884C36.2374 96.8884 35.3426 95.6732 35.3426 93.6373C35.3426 91.7081 36.2719 90.5097 37.7672 90.5097C38.2863 90.5097 38.769 90.7082 39.1372 91.0717L39.1372 90.6412ZM38.0439 91.8948C37.5223 91.8948 36.9005 92.1895 36.9005 93.6019C36.9005 95.1676 37.5286 95.497 38.0558 95.497C38.6018 95.497 38.8949 95.2073 39.1372 94.8934L39.1372 92.4903C38.9588 92.2317 38.6162 91.8948 38.0439 91.8948L38.0439 91.8948ZM26.0903 96.7612L27.6157 96.7612L27.6157 90.643L26.0903 90.643L26.0903 96.7612ZM26.0903 89.7671L27.6138 89.7671L27.6138 88.2585L26.0903 88.2585L26.0903 89.7671ZM64.159 96.76L65.6844 96.76L65.6844 88.1065L64.159 88.8621L64.159 96.76Z" fill="#bdbdbd" fill-rule="evenodd" opacity="1" stroke="none" vectornator:layerName="path"/>
<path d="M68.6735 0L0 24.8301L68.6735 12.8121L68.6735 0Z" fill="#bdbdbd" fill-rule="evenodd" opacity="1" stroke="none" vectornator:layerName="polygon"/>
</g>
</g>
</svg>
